<svg preserveAspectRatio="none" width="100%" height="100%" overflow="visible" style="display: block;" viewBox="0 0 16 16" fill="none" xmlns="http://www.w3.org/2000/svg">
<g id="Frame">
<path id="Vector" d="M12.1667 9.33333V10.3C12.1667 11.4201 12.1667 11.9801 11.9487 12.408C11.7569 12.7843 11.451 13.0903 11.0747 13.282C10.6468 13.5 10.0868 13.5 8.96667 13.5H5.7C4.57989 13.5 4.01984 13.5 3.59202 13.282C3.21569 13.0903 2.90973 12.7843 2.71799 12.408C2.5 11.9801 2.5 11.4201 2.5 10.3V5.91667C2.5 5.83929 2.5 5.80061 2.50107 5.76789C2.53555 4.71467 3.38133 3.86888 4.43456 3.83441C4.46727 3.83333 4.50596 3.83333 4.58333 3.83333H6.16667M9.16667 2.5H13.5M13.5 2.5V6.83333M13.5 2.5L7.33333 8.66667" stroke="var(--stroke-0, #2A2A2A)" stroke-width="1.5" stroke-linecap="round" stroke-linejoin="round"/>
</g>
</svg>
