<svg preserveAspectRatio="none" width="100%" height="100%" overflow="visible" style="display: block;" viewBox="0 0 16 16" fill="none" xmlns="http://www.w3.org/2000/svg">
<g id="Frame">
<path id="Vector" d="M14 4L9.22787 7.71167C8.50567 8.2734 7.49433 8.2734 6.77213 7.71167L2 4" stroke="var(--stroke-0, #2A2A2A)" stroke-width="1.5"/>
<path id="Vector_2" d="M13.4937 10.7901L13.0291 9.5822C12.9714 9.43227 12.8273 9.33333 12.6667 9.33333C12.506 9.33333 12.3619 9.43227 12.3043 9.5822L11.8397 10.7901C11.772 10.9662 11.6329 11.1053 11.4568 11.173L10.2489 11.6376C10.0989 11.6953 10 11.8393 10 12C10 12.1607 10.0989 12.3047 10.2489 12.3624L11.4568 12.827C11.6329 12.8947 11.772 13.0338 11.8397 13.2099L12.3043 14.4178C12.3619 14.5677 12.506 14.6667 12.6667 14.6667C12.8273 14.6667 12.9714 14.5677 13.0291 14.4178L13.4937 13.2099C13.5613 13.0338 13.7005 12.8947 13.8765 12.827L15.0845 12.3624C15.2344 12.3047 15.3333 12.1607 15.3333 12C15.3333 11.8393 15.2344 11.6953 15.0845 11.6376L13.8765 11.173C13.7005 11.1053 13.5613 10.9662 13.4937 10.7901Z" fill="var(--fill-0, black)"/>
<path id="Vector_3" d="M14.1667 7.83333V6.36667C14.1667 5.24656 14.1667 4.68651 13.9487 4.25869C13.7569 3.88236 13.451 3.5764 13.0747 3.38465C12.6468 3.16667 12.0868 3.16667 10.9667 3.16667H5.03333C3.91323 3.16667 3.35317 3.16667 2.92535 3.38465C2.54903 3.5764 2.24307 3.88236 2.05132 4.25869C1.83333 4.68651 1.83333 5.24656 1.83333 6.36667V9.63333C1.83333 10.7535 1.83333 11.3135 2.05132 11.7413C2.24307 12.1177 2.54903 12.4236 2.92535 12.6153C3.35317 12.8333 3.91323 12.8333 5.03333 12.8333H8.5" stroke="var(--stroke-0, black)" stroke-width="1.5" stroke-linecap="round" stroke-linejoin="round"/>
</g>
</svg>
